<?xml version="1.0" standalone="no"?><svg xmlns="http://www.w3.org/2000/svg" viewBox="0 0 1440 320"><path fill="#e7008a" fill-opacity="1" d="M0,32L8.9,80C17.8,128,36,224,53,256C71.1,288,89,256,107,218.7C124.4,181,142,139,160,149.3C177.8,160,196,224,213,208C231.1,192,249,96,267,80C284.4,64,302,128,320,160C337.8,192,356,192,373,208C391.1,224,409,256,427,234.7C444.4,213,462,139,480,101.3C497.8,64,516,64,533,69.3C551.1,75,569,85,587,112C604.4,139,622,181,640,176C657.8,171,676,117,693,106.7C711.1,96,729,128,747,122.7C764.4,117,782,75,800,53.3C817.8,32,836,32,853,48C871.1,64,889,96,907,144C924.4,192,942,256,960,250.7C977.8,245,996,171,1013,144C1031.1,117,1049,139,1067,170.7C1084.4,203,1102,245,1120,250.7C1137.8,256,1156,224,1173,229.3C1191.1,235,1209,277,1227,261.3C1244.4,245,1262,171,1280,138.7C1297.8,107,1316,117,1333,117.3C1351.1,117,1369,107,1387,112C1404.4,117,1422,139,1431,149.3L1440,160L1440,0L1431.1,0C1422.2,0,1404,0,1387,0C1368.9,0,1351,0,1333,0C1315.6,0,1298,0,1280,0C1262.2,0,1244,0,1227,0C1208.9,0,1191,0,1173,0C1155.6,0,1138,0,1120,0C1102.2,0,1084,0,1067,0C1048.9,0,1031,0,1013,0C995.6,0,978,0,960,0C942.2,0,924,0,907,0C888.9,0,871,0,853,0C835.6,0,818,0,800,0C782.2,0,764,0,747,0C728.9,0,711,0,693,0C675.6,0,658,0,640,0C622.2,0,604,0,587,0C568.9,0,551,0,533,0C515.6,0,498,0,480,0C462.2,0,444,0,427,0C408.9,0,391,0,373,0C355.6,0,338,0,320,0C302.2,0,284,0,267,0C248.9,0,231,0,213,0C195.6,0,178,0,160,0C142.2,0,124,0,107,0C88.9,0,71,0,53,0C35.6,0,18,0,9,0L0,0Z"></path></svg>